<svg width="24" height="24" viewBox="0 0 24 24" fill="none" xmlns="http://www.w3.org/2000/svg">
<rect width="24" height="24" fill="white" fill-opacity="0.01"/>
<path fill-rule="evenodd" clip-rule="evenodd" d="M10.294 9.69805C10.2008 9.60614 10.1268 9.49661 10.0762 9.37584C10.0257 9.25507 9.99969 9.12546 9.99969 8.99455C9.99969 8.86364 10.0257 8.73403 10.0762 8.61327C10.1268 8.4925 10.2008 8.38297 10.294 8.29105C10.483 8.10449 10.7379 7.99988 11.0035 7.99988C11.2691 7.99988 11.524 8.10449 11.713 8.29105L14.678 11.2311C14.7802 11.3324 14.8613 11.453 14.9167 11.5858C14.972 11.7186 15.0005 11.8611 15.0005 12.0051C15.0005 12.149 14.972 12.2915 14.9167 12.4243C14.8613 12.5572 14.7802 12.6777 14.678 12.7791L11.723 15.7091C11.5339 15.8959 11.2788 16.0007 11.013 16.0007C10.7472 16.0007 10.492 15.8959 10.303 15.7091C10.2098 15.6171 10.1358 15.5076 10.0852 15.3868C10.0347 15.2661 10.0087 15.1365 10.0087 15.0056C10.0087 14.8746 10.0347 14.745 10.0852 14.6243C10.1358 14.5035 10.2098 14.394 10.303 14.3021L12.621 12.0051L10.294 9.69805Z" fill="#42526E"/>
</svg>
